<svg width="50" height="50" viewBox="0 0 50 50" fill="none" xmlns="http://www.w3.org/2000/svg">
<path d="M9.17461 19.4086C3.11735 17.9407 0 14.8228 0 10.141C0 2.06792 4.86307 -1.23713 14.2199 0.412989C17.3373 1.05577 22.9341 1.51627 26.5167 1.51627C32.6651 1.51627 33.3989 1.69855 35.8736 4.17852C40.4633 8.86026 39.178 16.7511 33.3029 19.7779C30.646 21.1546 15.4141 20.8812 9.17461 19.4086Z" transform="translate(4.85352 4.07898) scale(0.1 -0.1)" fill="black"/>
<path d="M5.49531 18.3576C4.30112 17.8971 2.56019 16.1558 1.54825 14.5009C-1.02237 10.3708 -0.37971 5.87614 3.3851 2.57111C6.13796 -9.33227e-06 6.22908 9.36887e-06 19.7152 9.36887e-06C31.0912 9.36887e-06 33.4796 0.273426 35.1294 1.65012C40.1747 5.68908 40.544 11.6516 36.0454 16.151L32.928 19.269L20.2668 19.1778C13.2024 19.1826 6.59837 18.8181 5.49531 18.3576Z" transform="translate(10.7542 3.92786) scale(0.1 -0.1)" fill="black"/>
<path d="M3.13526 16.151C-1.35853 11.6564 -0.99403 5.68909 4.05129 1.65013C5.70109 0.27343 8.08946 -9.36887e-06 19.4654 -9.36887e-06C32.9516 -9.36887e-06 33.0427 -4.57464e-06 35.7955 2.57111C41.0279 7.16171 39.6515 15.9687 33.412 18.3576C32.1267 18.9092 25.5227 19.2738 18.6405 19.2738H6.25262L3.13526 16.151Z" transform="translate(16.6881 3.92737) scale(0.1 -0.1)" fill="black"/>
<path d="M5.04533 18.1753C1.64981 16.3381 0 13.4024 0 9.36347C0 6.14957 0.551532 4.86403 2.66174 2.66227L5.32348 9.36887e-06H19.27H33.2118L35.8736 2.66227C37.9838 4.77289 38.5353 6.14957 38.5353 9.17639C38.5353 17.71 35.5091 19.269 19.083 19.269C12.0186 19.2738 6.1436 18.8181 5.04533 18.1753Z" transform="translate(22.6537 3.92786) scale(0.1 -0.1)" fill="black"/>
<path d="M5.7791 35.324C2.65695 33.8562 0 29.726 0 26.2387C0 25.0443 1.01193 22.6603 2.29245 20.9142C7.24664 14.1219 8.90125 11.2773 9.99951 8.06823C11.4671 3.57357 14.6803 0.729036 19.1741 0.177397C22.4785 -0.283101 23.2123 -0.0048881 26.1474 2.93079C28.718 5.50191 29.3607 6.87861 29.3607 9.72315C29.3607 17.8922 17.7114 35.1417 11.4719 36.1538C9.99952 36.4225 7.4289 36.0579 5.7791 35.324Z" transform="translate(28.2505 6.76233) scale(0.1 -0.1)" fill="black"/>
<path d="M6.21685 37.7225C2.36572 35.6119 0.619998 29.9229 0.159589 18.4488C-0.391943 6.88353 0.341834 4.13494 4.65817 1.47268C8.5093 -0.91136 13.099 -0.36452 16.3123 2.84938C18.4225 4.95999 18.7918 6.24555 19.5256 15.5131C20.8109 32.5803 20.8109 33.319 18.1491 35.9765C15.2092 38.821 9.61237 39.742 6.21685 37.7225Z" transform="translate(2.02051 8.75488) scale(0.1 -0.1)" fill="black"/>
<path d="M2.66175 35.8853L4.68353e-06 33.223V19.2738V5.32452L2.66175 2.66226C4.77196 0.551641 6.14838 2.34222e-06 9.17461 2.34222e-06C17.6154 2.34222e-06 19.2652 3.02682 19.2652 19.2738C19.2652 26.3396 18.8048 32.1198 18.2581 33.3142C16.5172 36.8015 13.5773 38.5476 9.36165 38.5476C6.15317 38.5428 4.86787 37.9911 2.66175 35.8853Z" transform="translate(29.4427 12.6456) scale(0.1 -0.1)" fill="black"/>
<path d="M4.03817 36.8926C0.551532 34.1393 7.31801e-08 31.7552 7.31801e-08 19.2738C7.31801e-08 3.03161 1.6498 -4.68443e-06 10.0906 -4.68443e-06C13.1169 -4.68443e-06 14.4933 0.551634 16.6035 2.66225L19.2653 5.32451V19.2738V33.2231L16.6035 35.8853C14.4022 37.9959 13.1169 38.5476 9.9036 38.5476C7.52482 38.5428 5.14124 37.9 4.03817 36.8926Z" transform="translate(2.00916 14.6647) scale(0.1 -0.1)" fill="black"/>
<path d="M150.252 340.6C148.506 339.223 146.583 338.763 141.902 338.763C133.092 338.763 126.488 336.009 120.158 329.677C117.314 326.833 114.47 322.976 113.827 321.144C112.729 318.026 112.268 317.748 110.249 318.39C106.029 319.585 95.1997 318.942 91.3486 317.287C82.9077 313.709 76.0256 306.365 73.455 298.2C72.4478 294.713 72.3519 294.713 67.4888 294.713C52.8996 294.713 39.7779 282.783 37.8548 267.731L37.2121 262.32L32.9917 261.125C23.9082 258.463 15.2851 249.93 12.7145 241.214C12.163 239.103 11.6114 234.608 11.7074 231.303C11.7985 222.588 15.0118 215.977 23.0833 207.9L29.4139 201.659V195.327V189.091L26.2966 192.305L23.2704 195.61H14.3691C5.74602 195.61 5.37674 195.519 2.71499 192.948C-0.311237 189.921 -0.862767 185.33 1.33856 181.018C3.17541 177.531 6.38388 176.336 14.3691 176.336C22.1673 176.336 25.9321 177.804 27.9464 181.57C29.1406 183.862 29.2317 182.764 29.5962 169.458C29.9655 157.254 30.33 153.949 31.9798 149.819C34.5504 143.305 39.5957 135.87 44.641 131.006L48.6792 127.058V85.3925C48.6792 51.4355 48.9526 42.6285 50.0556 37.8556C54.1849 20.419 69.0475 5.64471 86.4807 1.51461C95.1949 -0.504865 295.861 -0.504865 304.576 1.51461C313.108 3.53409 320.815 8.02875 327.606 14.8211C334.397 21.6135 338.891 29.322 340.91 37.8556C342.929 46.5715 342.929 247.277 340.91 255.993C336.78 273.429 322.009 288.295 304.576 292.425C299.713 293.528 290.078 293.802 249.159 293.802H199.612L182.821 310.596C166.486 326.929 166.122 327.389 166.122 331.15C166.122 333.261 165.662 336.105 165.024 337.391C162.818 342.255 154.655 344.087 150.252 340.6ZM148.324 316.831C154.286 312.519 184.749 280.951 189.248 274.523C201.54 256.995 207.046 235.707 204.662 215.239C199.708 174.034 168.788 142.83 128.047 137.875C117.314 136.589 78.6873 136.589 72.3519 137.875C63.1773 139.803 55.1009 146.226 51.2498 154.76C49.6 158.521 49.1396 161.365 48.8662 170.82L48.4969 182.289L61.2493 169.717C73.4502 157.696 74.2799 157.053 77.7665 157.053C84.4664 157.053 89.4206 163.567 87.2145 169.534C86.663 171.002 73.8195 184.587 58.6787 199.726L31.246 227.346V231.567C31.246 238.815 37.0251 243.588 44.4588 242.581C46.569 242.211 50.6072 238.82 60.6978 229.001C73.4502 216.428 74.371 215.786 77.7617 215.786C84.4616 215.786 89.4158 222.391 87.2097 228.267C86.6582 229.735 79.8719 237.352 72.1601 245.152C56.5637 260.938 55.4606 262.68 58.4869 268.829C60.6882 273.42 65.4602 275.895 70.2321 275.07C73.0761 274.518 75.6467 272.59 83.536 264.881C88.9506 259.648 94.3604 255.062 95.6457 254.789C99.0413 253.964 104.269 256.439 105.923 259.744C108.859 265.433 107.943 267.726 98.5809 277.363C92.068 284.064 91.7898 284.611 91.7898 288.741C91.7898 292.411 92.2502 293.514 94.9072 296.176C97.66 298.93 98.5761 299.294 102.705 299.294C107.386 299.294 107.568 299.203 115.002 292.046C119.131 288.007 123.625 284.52 124.911 284.155C128.397 283.33 133.625 285.805 135.279 289.11C137.39 293.058 137.116 295.716 134.085 300.306C132.618 302.508 131.15 305.444 130.781 306.729C129.956 310.217 132.435 315.445 136.013 317.652C140.248 320.228 144.104 319.954 148.324 316.831ZM300.355 273.151C309.803 270.671 315.678 265.625 320.172 256.175L322.556 251.129V146.97V42.8108L320.172 37.7645C316.777 30.4253 312.738 26.2952 305.765 22.899L299.617 19.8722H195.483H91.3438L86.2985 22.2562C76.8505 26.7557 71.8004 32.627 69.3257 42.0769C68.2226 46.2981 67.9492 54.3712 67.9492 82.7303V118.064L95.1997 117.791C112.633 117.608 125.755 117.882 131.256 118.524C178.414 124.401 216.402 161.38 223.467 208.183C226.493 228.281 224.11 247.55 216.124 266.364C214.383 270.585 212.911 274.163 212.911 274.255C212.911 274.437 231.447 274.528 254.017 274.528C287.421 274.528 296.044 274.25 300.355 273.151Z" transform="translate(14.7576 49) scale(0.1 -0.1)" fill="black"/>
<path d="M4.77195 37.6397C3.12215 36.6323 1.37643 34.704 0.916023 33.4184C0.364491 32.1329 7.31801e-08 25.5276 7.31801e-08 18.6441V6.25383L3.11735 3.13587C7.61114 -1.35879 13.5773 -0.994228 17.6155 4.05207C18.9919 5.70219 19.2653 8.09103 19.2653 19.4692C19.2653 32.9579 19.2653 33.0491 16.7858 35.8025C13.395 39.568 8.90125 40.206 4.77195 37.6397Z" transform="translate(2.00916 20.6309) scale(0.1 -0.1)" fill="black"/>
<path d="M3.11735 35.7894L0 32.6714L0.273368 18.8133C0.551532 5.23337 0.551532 5.05109 3.11735 2.57112C5.13644 0.551639 6.51287 7.31943e-08 9.81727 7.31943e-08C13.395 7.31943e-08 14.407 0.460499 16.6994 3.02682L19.3612 5.9625V18.8085C19.3612 32.7578 18.6274 35.6023 14.6803 37.7129C10.2777 39.9195 6.69991 39.3726 3.11735 35.7894Z" transform="translate(2 26.549) scale(0.1 -0.1)" fill="black"/>
<path d="M5.87022 28.4502C2.56582 27.1646 5.85441e-07 23.0345 5.85441e-07 18.9956C5.85441e-07 15.6905 0.551532 14.6832 4.68083 10.7354C10.4599 5.13744 20.9198 2.34222e-06 26.4256 2.34222e-06C33.8593 2.34222e-06 37.9886 7.06578 34.6842 14.2227C34.0415 15.7817 31.3798 17.5277 26.7037 19.8206C22.8478 21.6578 18.7233 24.0419 17.438 25.2363C13.0257 29.1841 9.9036 30.1003 5.87022 28.4502Z" transform="translate(3.20239 31.1831) scale(0.1 -0.1)" fill="black"/>
<path d="M4.03945 17.71C-1.00586 13.6711 -1.37515 7.70855 3.21455 3.11796L6.33191 -2.34222e-06L20.1874 0.273422C33.7646 0.546843 33.9517 0.54684 36.4264 3.11796C38.4455 5.13744 38.997 6.51414 38.997 9.81917C38.997 13.3976 38.5366 14.4098 35.9708 16.7027L33.0356 19.3649H19.4584C8.07763 19.3601 5.68925 19.0867 4.03945 17.71Z" transform="translate(8.79858 31.3755) scale(0.1 -0.1)" fill="black"/>
</svg>
